<svg xmlns="http://www.w3.org/2000/svg" version="1.1" xmlns:xlink="http://www.w3.org/1999/xlink" xmlns:svgjs="http://svgjs.dev/svgjs" width="128" height="128" viewBox="0 0 128 128"><g transform="matrix(0.8046875,0,0,0.8046875,12.221578124999994,20.111845959231346)"><svg viewBox="0 0 96 82" data-background-color="#282634" preserveAspectRatio="xMidYMid meet" height="109" width="128" xmlns="http://www.w3.org/2000/svg" xmlns:xlink="http://www.w3.org/1999/xlink"><g id="tight-bounds" transform="matrix(1,0,0,1,0.25950000000000273,0.030557122286253957)"><svg viewBox="0 0 95.481 81.93888575542749" height="81.93888575542749" width="95.481"><g><svg viewBox="0 0 95.481 81.93888575542749" height="81.93888575542749" width="95.481"><g><svg viewBox="0 0 95.481 81.93888575542749" height="81.93888575542749" width="95.481"><g id="textblocktransform"><svg viewBox="0 0 95.481 81.93888575542749" height="81.93888575542749" width="95.481" id="textblock"><g><svg viewBox="0 0 95.481 81.93888575542749" height="81.93888575542749" width="95.481"><g><svg viewBox="0 0 95.481 81.93888575542749" height="81.93888575542749" width="95.481"><g><svg xmlns="http://www.w3.org/2000/svg" xmlns:xlink="http://www.w3.org/1999/xlink" xml:space="preserve" version="1.1" style="shape-rendering:geometricPrecision;text-rendering:geometricPrecision;image-rendering:optimizeQuality;" viewBox="13.56379039549325 71.98805950451816 819.4362096045068 703.2151942548173" x="0" y="0" fill-rule="evenodd" clip-rule="evenodd" height="81.93888575542749" width="95.481" class="icon-icon-0" data-fill-palette-color="accent" id="icon-0"><g fill="#dcdcdc" data-fill-palette-color="accent"><path class="" d="M650 734C665 725 675 719 705 717 705 735 713 750 733 750H805C820 750 833 737 833 722V313C833 297 820 284 805 284H733C713 284 705 300 705 318 672 321 621 302 567 187 548 133 557 71 499 72 401 72 435 264 458 308 411 320 144 311 83 311-4 311-15 444 83 449 125 450 232 451 300 451 300 462 290 472 291 496 291 515 312 534 312 555 307 566 282 600 313 634 316 638 241 642 171 641 110 640 39 742 171 759 255 769 379 764 417 771 492 782 583 772 650 734M343 422H83C29 422 29 340 83 340 155 340 482 358 497 319 479 288 430 106 499 100 532 100 522 147 540 197 567 267 622 352 705 346V688C669 691 655 698 636 709 569 747 496 749 421 742 393 737 250 744 171 736 85 728 135 663 168 664 237 667 365 661 359 653 347 640 328 620 326 606 323 580 338 568 341 549 343 535 321 510 321 492 322 474 330 452 343 422" fill="#ffffff" data-fill-palette-color="accent"></path></g></svg></g></svg></g></svg></g></svg></g></svg></g></svg></g><defs></defs></svg><rect width="95.481" height="81.93888575542749" fill="none" stroke="none" visibility="hidden"></rect></g></svg></g></svg>